<?xml version="1.0" standalone="no"?>
<!DOCTYPE svg PUBLIC "-//W3C//DTD SVG 20010904//EN"
 "http://www.w3.org/TR/2001/REC-SVG-20010904/DTD/svg10.dtd">
<svg version="1.0" xmlns="http://www.w3.org/2000/svg"
 width="222.000000pt" height="227.000000pt" viewBox="0 0 222.000000 227.000000"
 preserveAspectRatio="xMidYMid meet">

<g transform="translate(0.000000,227.000000) scale(0.100000,-0.100000)"
fill="#000000" stroke="none">
<path d="M0 2251 c0 -12 11 -23 32 -30 37 -13 42 -10 34 24 -5 20 -13 25 -36
25 -23 0 -30 -5 -30 -19z"/>
<path d="M2205 2243 c-30 -154 -68 -239 -141 -318 -26 -27 -41 -51 -35 -53 7
-2 30 17 53 43 22 25 62 57 89 71 l49 24 0 130 c0 128 -4 157 -15 103z"/>
<path d="M1157 2116 c-10 -14 -26 -26 -36 -26 -10 0 -22 -7 -25 -16 -3 -9 -13
-14 -21 -10 -8 3 -17 0 -21 -6 -4 -7 -9 -6 -14 3 -15 23 -50 18 -56 -8 -4 -13
-9 -22 -12 -19 -3 3 -11 1 -19 -5 -10 -9 -13 -8 -13 3 0 8 -9 23 -21 34 -20
18 -22 18 -34 1 -8 -11 -26 -17 -49 -17 -20 0 -36 -5 -36 -11 0 -7 -16 -10
-43 -8 -37 4 -43 1 -43 -15 1 -10 -5 -21 -11 -23 -7 -3 -13 2 -13 11 0 9 -7
16 -15 16 -21 0 -19 -23 6 -64 l21 -36 -39 0 c-40 0 -65 19 -121 94 -12 16
-22 24 -22 19 0 -5 11 -24 25 -43 28 -39 24 -59 -7 -30 -26 23 -34 25 -41 7
-7 -18 8 -41 21 -33 6 3 14 1 18 -5 4 -8 3 -9 -4 -5 -7 4 -12 1 -12 -10 0 -13
-3 -14 -14 -5 -12 10 -19 8 -35 -8 -24 -24 -27 -79 -10 -176 14 -83 16 -115 8
-120 -4 -3 -28 3 -53 12 -33 13 -46 23 -47 38 0 17 -2 17 -11 -5 -5 -14 -10
-37 -10 -52 0 -16 -4 -28 -10 -28 -5 0 -7 7 -4 15 3 10 -1 18 -11 22 -9 4 -19
1 -21 -5 -2 -7 -10 -12 -18 -12 -19 0 -18 -26 1 -34 23 -8 18 -29 -5 -22 -68
21 -66 21 -50 5 22 -20 57 -39 73 -39 7 0 27 -13 45 -30 18 -17 38 -30 43 -30
6 0 8 -4 4 -10 -3 -5 -11 -7 -18 -5 -7 3 -19 0 -27 -5 -13 -8 -13 -11 -1 -19
8 -5 11 -16 8 -25 -3 -8 -1 -18 4 -22 6 -3 9 -19 5 -34 -3 -18 0 -33 10 -40
10 -9 11 -16 3 -26 -6 -8 -8 -30 -4 -56 7 -44 6 -44 -32 -61 -21 -9 -58 -19
-83 -23 -25 -4 -38 -9 -29 -11 9 -2 34 0 57 5 33 8 39 7 35 -4 -3 -8 -16 -17
-29 -20 -13 -3 -50 -17 -81 -30 l-58 -24 93 0 92 0 1 -52 c1 -29 1 -56 0 -60
0 -4 6 -5 14 -2 30 12 16 -35 -15 -51 -35 -18 -39 -25 -10 -18 13 4 20 0 20
-9 0 -8 9 -23 19 -32 18 -17 20 -17 31 1 10 16 11 14 7 -10 -2 -15 0 -30 4
-33 5 -3 9 -20 9 -37 0 -33 63 -147 80 -147 5 0 21 -11 36 -25 15 -14 31 -25
36 -25 5 0 13 -11 18 -25 5 -13 21 -42 35 -65 22 -34 30 -40 61 -40 19 0 44 4
54 10 23 12 60 75 60 102 0 18 2 19 16 7 9 -8 27 -12 39 -11 12 2 30 -4 38
-13 13 -12 20 -13 42 -3 21 10 27 9 38 -6 13 -17 65 -22 197 -16 68 3 95 -1
113 -18 20 -18 16 -21 58 46 19 29 25 32 70 32 42 0 51 3 60 23 8 18 17 23 34
19 17 -3 27 2 36 20 12 23 28 38 41 38 4 0 8 -19 10 -43 l3 -42 55 -3 c30 -2
79 -1 108 3 l52 6 0 48 c0 40 5 53 38 89 43 48 73 120 78 194 3 28 8 56 13 62
19 25 34 94 32 152 -2 85 -4 84 149 84 l100 0 0 65 c0 36 -2 65 -5 65 -3 0
-29 -12 -58 -26 -35 -18 -74 -29 -119 -32 -64 -4 -68 -4 -68 17 0 17 6 21 34
21 18 0 39 6 45 14 9 11 2 15 -39 20 -57 8 -71 25 -74 88 -1 35 4 45 42 79
l42 40 -39 -3 c-22 -1 -42 0 -45 3 -2 2 -7 37 -11 78 -4 41 -12 83 -18 93 -10
17 -9 22 7 32 10 6 30 21 44 34 25 22 25 22 3 22 -21 0 -21 1 -5 17 15 15 18
15 28 1 9 -13 11 -9 11 21 0 22 10 49 24 70 17 24 21 35 12 44 -7 7 -11 7 -11
1 0 -6 -19 -24 -42 -41 -24 -17 -56 -43 -73 -57 -34 -29 -60 -35 -51 -11 3 9
0 18 -8 21 -8 3 -14 21 -14 42 -2 90 0 87 -74 88 -43 1 -75 8 -90 18 -12 9
-33 16 -46 16 -15 0 -21 4 -16 12 5 8 2 9 -9 5 -10 -4 -24 -10 -32 -13 -11 -4
-13 -2 -9 9 8 22 -12 30 -29 12 -21 -20 -41 -19 -33 1 4 9 4 25 0 36 -4 15
-12 18 -34 13 -16 -3 -31 -2 -35 4 -11 19 -42 12 -50 -11 -6 -20 -8 -21 -12
-5 -4 15 -11 17 -49 11 -27 -4 -44 -2 -44 4 0 5 -15 9 -32 7 -22 -1 -38 5 -49
18 -15 18 -16 18 -32 -7z m216 -579 c34 -9 51 -27 26 -27 -5 0 -7 -5 -4 -10
12 -19 -46 -32 -79 -18 -22 9 -31 9 -34 0 -2 -8 -8 -8 -21 0 -11 7 -26 8 -37
3 -11 -5 -25 -8 -31 -8 -69 2 -84 5 -97 19 -21 21 -20 31 4 39 11 4 17 11 14
17 -4 7 -2 8 5 4 6 -4 17 -3 24 3 7 5 27 9 45 9 18 -1 35 1 38 4 3 3 29 -1 57
-9 29 -8 69 -20 90 -26z m-303 -3 c0 -8 -7 -14 -15 -14 -8 0 -15 9 -15 20 0
13 5 18 15 14 8 -4 15 -12 15 -20z m-740 -14 c0 -5 -2 -10 -4 -10 -3 0 -8 5
-11 10 -3 6 -1 10 4 10 6 0 11 -4 11 -10z m1590 -96 c0 -9 -5 -14 -12 -12 -18
6 -21 28 -4 28 9 0 16 -7 16 -16z m-692 -89 c7 -14 12 -38 12 -53 0 -15 6 -39
14 -54 8 -14 10 -30 6 -35 -15 -14 13 -81 38 -93 25 -11 27 -48 1 -41 -8 3
-33 4 -55 3 -50 -2 -54 4 -61 98 -8 90 -5 158 7 181 14 26 24 24 38 -6z m99
-61 c-3 -3 -12 -4 -19 -1 -8 3 -5 6 6 6 11 1 17 -2 13 -5z m13 -49 c0 -26 113
-34 163 -11 62 27 77 27 77 -2 0 -37 -13 -53 -44 -56 -29 -4 -52 -27 -62 -63
-7 -27 -19 -28 -68 -8 -20 9 -40 13 -45 11 -4 -3 -17 8 -29 24 -12 16 -17 30
-12 32 9 3 3 35 -15 80 -5 13 -2 15 14 11 12 -3 21 -11 21 -18z m-923 -67 c-3
-8 -6 -5 -6 6 -1 11 2 17 5 13 3 -3 4 -12 1 -19z m883 3 c0 -6 -4 -13 -10 -16
-5 -3 -10 1 -10 9 0 9 5 16 10 16 6 0 10 -4 10 -9z m-863 -173 c-3 -8 -6 -5
-6 6 -1 11 2 17 5 13 3 -3 4 -12 1 -19z m1467 8 c23 9 20 -9 -4 -23 -16 -11
-21 -10 -30 6 -14 27 -13 36 4 22 7 -6 21 -9 30 -5z m-1325 -81 c1 -37 -25
-78 -45 -71 -8 3 -17 -1 -20 -9 -5 -11 -10 -12 -26 -4 -14 8 -23 8 -31 0 -16
-16 -24 -14 -30 10 -3 12 -10 18 -16 14 -6 -3 -9 -11 -6 -16 4 -5 1 -9 -4 -9
-12 0 -13 31 -3 68 7 24 26 31 28 9 3 -25 17 -57 24 -57 5 0 15 6 22 14 8 7
25 17 38 21 32 10 40 22 40 61 0 68 27 40 29 -31z m71 32 c0 -5 -4 -5 -10 -2
-5 3 -10 14 -10 23 0 15 2 15 10 2 5 -8 10 -19 10 -23z m-210 9 c0 -3 -4 -8
-10 -11 -5 -3 -10 -1 -10 4 0 6 5 11 10 11 6 0 10 -2 10 -4z m97 -198 c-3 -8
-6 -5 -6 6 -1 11 2 17 5 13 3 -3 4 -12 1 -19z m-47 -63 c0 -8 -4 -17 -10 -20
-6 -4 -10 5 -10 20 0 15 4 24 10 20 6 -3 10 -12 10 -20z m802 -37 c-6 -6 -19
-7 -29 -3 -17 7 -17 8 2 15 24 9 41 2 27 -12z m-762 -33 c0 -8 -4 -15 -10 -15
-5 0 -10 7 -10 15 0 8 5 15 10 15 6 0 10 -7 10 -15z m227 -52 c-3 -10 -5 -2
-5 17 0 19 2 27 5 18 2 -10 2 -26 0 -35z m-7 -78 c-7 -8 -17 -15 -22 -15 -6 0
-5 7 2 15 7 8 17 15 22 15 6 0 5 -7 -2 -15z"/>
<path d="M487 2075 c18 -24 33 -32 33 -17 0 8 -37 42 -46 42 -3 0 3 -11 13
-25z"/>
<path d="M1840 1935 c0 -8 2 -15 4 -15 2 0 6 7 10 15 3 8 1 15 -4 15 -6 0 -10
-7 -10 -15z"/>
<path d="M1865 1870 c3 -5 8 -10 11 -10 2 0 4 5 4 10 0 6 -5 10 -11 10 -5 0
-7 -4 -4 -10z"/>
<path d="M278 833 c7 -3 16 -2 19 1 4 3 -2 6 -13 5 -11 0 -14 -3 -6 -6z"/>
<path d="M96 821 c-3 -4 -17 -6 -31 -3 -18 3 -32 -2 -46 -16 -24 -27 -25 -47
-1 -37 9 4 32 7 51 6 35 -2 51 11 51 42 0 18 -15 23 -24 8z"/>
<path d="M205 800 c-3 -5 -2 -10 4 -10 5 0 13 5 16 10 3 6 2 10 -4 10 -5 0
-13 -4 -16 -10z"/>
<path d="M0 690 c0 -5 5 -10 10 -10 6 0 10 5 10 10 0 6 -4 10 -10 10 -5 0 -10
-4 -10 -10z"/>
<path d="M1860 439 c0 -5 9 -13 20 -19 51 -27 107 -149 112 -245 3 -51 0 -60
-15 -63 -11 -2 -29 5 -40 16 -23 20 -83 52 -100 52 -5 0 -7 -6 -4 -14 4 -9 0
-12 -11 -10 -11 3 -23 -6 -35 -27 l-17 -31 -20 25 c-11 14 -45 41 -75 62 -30
20 -55 40 -55 46 0 5 -7 9 -16 9 -11 0 -14 -6 -9 -21 10 -31 36 -58 50 -53 15
6 41 -47 56 -115 l11 -51 254 0 254 0 0 118 c0 99 -3 121 -18 138 -9 10 -35
40 -56 66 -48 59 -93 88 -138 88 -19 0 -60 8 -91 19 -32 10 -57 15 -57 10z
m69 -329 c55 -19 70 -46 21 -37 -35 7 -90 43 -90 58 0 6 6 7 13 2 6 -4 32 -15
56 -23z"/>
<path d="M280 384 c-87 -53 -184 -99 -240 -114 l-40 -11 0 -129 0 -130 44 0
c47 0 58 9 64 50 4 28 17 47 45 62 22 12 19 3 -20 -50 -13 -17 -20 -32 -16
-32 5 0 14 9 20 20 7 10 21 24 31 29 17 9 18 7 8 -23 -6 -21 -20 -37 -36 -44
-21 -8 -16 -10 36 -11 l61 -1 -7 39 c-10 56 6 158 34 211 50 94 61 114 79 134
14 16 24 47 15 45 -2 0 -37 -20 -78 -45z m-175 -293 c-21 -42 -35 -47 -35 -13
0 33 6 42 32 42 17 0 17 -2 3 -29z"/>
<path d="M2170 344 c0 -3 11 -22 25 -42 l25 -37 0 43 c0 38 -2 42 -25 42 -14
0 -25 -2 -25 -6z"/>
<path d="M1304 148 c3 -15 2 -30 -4 -33 -5 -3 -10 -1 -10 4 0 7 -7 7 -20 -1
-12 -8 -18 -19 -15 -29 3 -9 -1 -21 -8 -28 -9 -6 -12 -22 -9 -37 3 -19 7 -22
13 -12 7 10 9 10 9 1 0 -9 21 -13 71 -13 l70 0 -25 33 c-13 17 -32 52 -42 77
-20 54 -40 78 -30 38z"/>
<path d="M861 123 c-17 -23 -22 -25 -30 -14 -7 12 -16 8 -46 -20 -20 -19 -40
-33 -45 -32 -9 3 -60 -43 -60 -52 0 -3 61 -5 135 -5 74 0 135 2 135 5 0 2 -9
19 -20 37 -11 18 -20 50 -20 71 0 45 -19 49 -49 10z"/>
<path d="M460 103 c-19 -19 -66 -51 -105 -69 l-70 -33 105 -1 105 0 3 70 c1
39 1 70 0 70 -2 0 -19 -17 -38 -37z"/>
<path d="M1210 77 c-13 -7 -32 -27 -43 -45 l-19 -32 36 0 c36 0 42 8 36 49 -1
8 4 17 11 22 23 14 5 19 -21 6z"/>
</g>
</svg>
